<svg xmlns="http://www.w3.org/2000/svg" xmlns:xlink="http://www.w3.org/1999/xlink" width="97.999" height="73.65" viewBox="0 0 97.999 73.65">
  <defs>
    <clipPath id="clip-path">
      <path id="Trazado_4436" data-name="Trazado 4436" d="M577.65,237.669V213H542.579v24.669H511.117l48.993,48.981,49.005-48.981Z" transform="translate(374.895 166.35)" fill="#e6efe6"/>
    </clipPath>
  </defs>
  <g id="Enmascarar_grupo_2" data-name="Enmascarar grupo 2" transform="translate(-886.012 -379.35)" clip-path="url(#clip-path)">
    <g id="Rectángulo_1305" data-name="Rectángulo 1305" transform="translate(880 374)" fill="#e6efe6" stroke="#707070" stroke-width="1">
      <rect width="110" height="84" stroke="none"/>
      <rect x="0.5" y="0.5" width="109" height="83" fill="none"/>
    </g>
    <path id="Trazado_4342" data-name="Trazado 4342" d="M10.7,40.927V39.755a4.671,4.671,0,0,1,1.244-3.21,19.619,19.619,0,0,1,6.013-3.8,7.847,7.847,0,0,1,1.379-.433l2.017,5.108a.494.494,0,0,0,.772.2l.4-.323L23.84,38.9l-3.184,6.171H21.4l3.086-5.888h1.963l3.1,5.888h.745L27.1,38.9l1.334-1.609.4.323a.494.494,0,0,0,.773-.2l2.016-5.106a8.008,8.008,0,0,1,1.358.43,19.541,19.541,0,0,1,6.015,3.8,4.671,4.671,0,0,1,1.244,3.211v1.172h.7V39.755A5.374,5.374,0,0,0,39.5,36.064a19.744,19.744,0,0,0-6.252-3.971,8.737,8.737,0,0,0-1.375-.443l.018-.046L30.1,30.157V28A8.077,8.077,0,0,0,32.8,22.7a2.228,2.228,0,0,0,1.141-.456,1.811,1.811,0,0,0,.692-1.1c.309-1.4.209-2.4-.3-2.977a1.514,1.514,0,0,0-1.033-.5,13.14,13.14,0,0,0,1.127-6.732,8.139,8.139,0,0,0-6.456-6.755,6.939,6.939,0,0,0-6.451,1.869,5.893,5.893,0,0,0-4.138,1.578,6.831,6.831,0,0,0-1.661,5.347,8.443,8.443,0,0,0,1.737,4.724,1.478,1.478,0,0,0-.83.472c-.507.577-.609,1.578-.3,2.978a1.839,1.839,0,0,0,.7,1.105,2.186,2.186,0,0,0,1.14.455,8.09,8.09,0,0,0,2.672,5.278v2.2L19.062,31.6l.017.044a8.813,8.813,0,0,0-1.4.446,20.3,20.3,0,0,0-6.25,3.97A5.374,5.374,0,0,0,10,39.755v1.172Zm15.828-2.444H24.406L23.07,36.85l2.408-1.963,2.406,1.962Zm-1.17-4.628-3.825-3.446V28.48A7.592,7.592,0,0,0,25.477,29.5,7.611,7.611,0,0,0,29.4,28.492v1.935l-3.8,3.428Zm5.688-2.028-2,5.066L26.018,34.42l3.9-3.511ZM16.421,12.932a6.172,6.172,0,0,1,1.455-4.819A5.119,5.119,0,0,1,21.418,6.74c.07,0,.126,0,.165,0a.46.46,0,0,0,.354-.135,6.286,6.286,0,0,1,5.887-1.751,7.432,7.432,0,0,1,5.9,6.162,12.219,12.219,0,0,1-.949,6.06,6.586,6.586,0,0,0-1.09-3.28,3.865,3.865,0,0,0-3.178-1.633c-5.2-.032-6.583-1.826-6.809-2.184a.479.479,0,0,0-.581-.2c-.607.231-3.515,1.649-3.1,7.481A7.732,7.732,0,0,1,16.421,12.932Zm2.422,9.51a.488.488,0,0,0-.172-.335.514.514,0,0,0-.375-.113,1.312,1.312,0,0,1-.864-.322,1.153,1.153,0,0,1-.424-.685c-.317-1.456-.1-2.089.146-2.364a.9.9,0,0,1,.761-.269.5.5,0,0,0,.121-.01.485.485,0,0,0,.45.03.5.5,0,0,0,.292-.512c-.588-5.44,1.664-6.986,2.435-7.35.527.706,2.285,2.327,7.294,2.358a3.16,3.16,0,0,1,2.6,1.329,6.32,6.32,0,0,1,.99,3.809.491.491,0,0,0,.377.491.52.52,0,0,0,.117.014.472.472,0,0,0,.341-.168.436.436,0,0,0,.079.008.932.932,0,0,1,.79.271c.241.274.461.906.139,2.366a1.105,1.105,0,0,1-.413.678,1.33,1.33,0,0,1-.876.323.486.486,0,0,0-.538.45,7.511,7.511,0,0,1-2.576,5.112,6.639,6.639,0,0,1-4.06,1.246A6.619,6.619,0,0,1,21.4,27.541,7.369,7.369,0,0,1,18.843,22.442Zm2.2,8.467,3.9,3.511-3.032,2.472-2-5.066Z" transform="translate(909.5 403.449)" fill="#006341" stroke="#006341" stroke-width="0.5"/>
  </g>
</svg>
