<svg xmlns="http://www.w3.org/2000/svg" viewBox="0 0 55.44 31.68"><defs><style>.cls-1{fill:#b2292e;}.cls-2{fill:#006241;}</style></defs><title>icoBaz</title><g id="Capa_2" data-name="Capa 2"><g id="Capa_1-2" data-name="Capa 1"><path class="cls-1" d="M36.77,20.18a9.05,9.05,0,1,1-9.05-9,9.06,9.06,0,0,1,9.05,9"/><path class="cls-2" d="M39.45,0A66,66,0,0,0,27,3.46C16,8.1,8.23,16.18,8.9,23c.43,4.46,2.81,7.4,8.64,8.46C7.07,32.56.65,29.36,0,23.06-.69,15.47,9.49,6.22,23,2A47.11,47.11,0,0,1,29,.66,69.2,69.2,0,0,1,39.45,0"/><path class="cls-2" d="M16,0A65.74,65.74,0,0,1,28.47,3.46C39.46,8.1,47.2,16.18,46.54,23c-.43,4.46-2.82,7.4-8.64,8.46,10.47,1.09,16.9-2.11,17.5-8.41C56.13,15.47,46,6.22,32.43,2A47.65,47.65,0,0,0,26.49.66,69.29,69.29,0,0,0,16,0"/></g></g></svg>