<svg xmlns="http://www.w3.org/2000/svg" width="96" height="96" viewBox="0 0 96 96"><defs><style>.a{fill:#006341;}</style></defs><g transform="translate(0 0)"><g transform="translate(0 0)"><path class="a" d="M81.941,14.059A48,48,0,0,0,14.059,81.941,48,48,0,1,0,81.941,14.059ZM48,90.375A42.375,42.375,0,1,1,90.375,48,42.423,42.423,0,0,1,48,90.375Z" transform="translate(0 0)"/></g></g><g transform="translate(24.69 32.08)"><path class="a" d="M175.112,170.275a2.76,2.76,0,0,0-3.9,0l-24.37,24.37-12.828-12.828a2.76,2.76,0,1,0-3.9,3.9l14.78,14.78a2.759,2.759,0,0,0,3.9,0l26.321-26.321A2.76,2.76,0,0,0,175.112,170.275Z" transform="translate(-129.301 -169.467)"/></g></svg>