<svg xmlns="http://www.w3.org/2000/svg" width="17.961" height="15.4" viewBox="0 0 17.961 15.4">
  <g id="Grupo_3478" data-name="Grupo 3478" transform="translate(-77.8 -309.801)">
    <path id="Trazado_4442" data-name="Trazado 4442" d="M804.591,459.48h-9.512v-.366a1.464,1.464,0,0,0-1.464-1.463h-3.658a1.463,1.463,0,0,0-1.464,1.463v12.073a1.464,1.464,0,0,0,1.464,1.464h14.634a1.464,1.464,0,0,0,1.463-1.464V460.943A1.463,1.463,0,0,0,804.591,459.48Zm-14.634-1.1h3.658a.734.734,0,0,1,.732.732v.366h-5.122v-.366A.733.733,0,0,1,789.957,458.382Zm15.365,2.817v9.988a.732.732,0,0,1-.731.732H789.957a.732.732,0,0,1-.732-.732V460.212h15.366a.732.732,0,0,1,.731.731Z" transform="translate(-710.493 -147.65)" fill="#006341" stroke="#006341" stroke-width="0.4"/>
    <path id="Trazado_4450" data-name="Trazado 4450" d="M354.2,503.479l-.493.393,3.42,2.887.257.217,3.678-3.1-.494-.393-3.185,2.688-.328-.277Z" transform="translate(-270.288 -185.85)" fill="#006341" stroke="#006341" stroke-width="0.8"/>
  </g>
</svg>
