<?xml version="1.0" encoding="utf-8"?>
<!-- Generator: Adobe Illustrator 24.0.1, SVG Export Plug-In . SVG Version: 6.00 Build 0)  -->
<svg version="1.1" id="Capa_1" xmlns="http://www.w3.org/2000/svg" xmlns:xlink="http://www.w3.org/1999/xlink" x="0px" y="0px"
	viewBox="0 0 100 100" style="enable-background:new 0 0 100 100;" xml:space="preserve">
<g id="icoEliminar3">
	<g>
		<path class="st0" d="M50,32c-1.8,0-3.3,1.5-3.3,3.3v45.3c0,1.8,1.5,3.3,3.3,3.3s3.3-1.5,3.3-3.3V35.3C53.3,33.5,51.8,32,50,32z"/>
		<path class="st0" d="M34.6,32c-1.8,0.1-3.3,1.6-3.2,3.4l1.3,45.3c0.1,1.8,1.6,3.3,3.4,3.2s3.3-1.6,3.2-3.4L38,35.2
			C37.9,33.4,36.4,31.9,34.6,32z"/>
		<path class="st0" d="M65.4,32c-1.8-0.1-3.4,1.4-3.4,3.2l-1.3,45.3c-0.1,1.8,1.4,3.4,3.2,3.4c1.8,0.1,3.4-1.4,3.4-3.2l1.3-45.3
			C68.7,33.6,67.3,32.1,65.4,32z"/>
		<path class="st0" d="M88,18.7c0-2.6-2.1-4.7-4.7-4.7H67.8l-1.3-5.3C65.3,3.8,60.4,0,55.3,0H44.7c-5.1,0-9.9,3.8-11.1,8.7L32.2,14
			H16.7c-2.6,0-4.7,2.1-4.7,4.7c0,2.1,1.4,3.9,3.4,4.5l2.4,67C18,95.6,22.5,100,28,100h44c5.5,0,10-4.4,10.2-9.8l2.4-67
			C86.6,22.6,88,20.8,88,18.7z M42.6,11c0.2-0.8,1.3-1.6,2.1-1.6h10.7c0.8,0,1.9,0.9,2.1,1.6l0.8,3H41.8L42.6,11z M72,90.7H28
			c-0.4,0-0.9-0.4-0.9-0.8l-2.4-66.5h50.6l-2.4,66.5C72.8,90.3,72.4,90.7,72,90.7z"/>
	</g>
</g>
<g id="Capa_1_1_">
</g>
</svg>
