<svg xmlns="http://www.w3.org/2000/svg" width="96" height="96" viewBox="0 0 96 96"><defs><style>.a{opacity:0.96;}.b{fill:#f44336;}</style></defs><g class="a" transform="translate(40)"><g transform="translate(-40)"><path class="b" d="M81.939,14.061A48,48,0,1,0,14.061,81.939,48,48,0,1,0,81.939,14.061Zm-3.859,64.02A42.541,42.541,0,0,1,17.919,17.919,42.541,42.541,0,1,1,78.081,78.081Z"/><path class="b" d="M165.734,129.611a2.322,2.322,0,0,0-3.295,0l-14.767,14.767-14.767-14.767a2.33,2.33,0,1,0-3.295,3.295l14.767,14.767-14.767,14.767a2.338,2.338,0,0,0,1.639,3.985,2.272,2.272,0,0,0,1.639-.69l14.767-14.767,14.767,14.767a2.344,2.344,0,0,0,1.639.69,2.244,2.244,0,0,0,1.639-.69,2.322,2.322,0,0,0,0-3.295l-14.732-14.767,14.767-14.767A2.322,2.322,0,0,0,165.734,129.611Z" transform="translate(-99.672 -99.672)"/></g></g></svg>