<svg xmlns="http://www.w3.org/2000/svg" width="29.954" height="38.129" viewBox="0 0 29.954 38.129">
  <g id="Grupo_3049" data-name="Grupo 3049" transform="translate(-89.831 -455.799)">
    <g id="Archivo" transform="translate(89.831 455.799)">
      <g id="Grupo_467" data-name="Grupo 467" transform="translate(0 0)">
        <path id="Trazado_1617" data-name="Trazado 1617" d="M42.482,12.5l-9.15-9.046A1.557,1.557,0,0,0,32.237,3h-15c-3.112,0-4.249,1.137-4.249,4.248V36.88c0,3.112,1.137,4.249,4.249,4.249H38.695c3.112,0,4.249-1.137,4.249-4.248V13.6A1.554,1.554,0,0,0,42.482,12.5Zm-8.66-5.574,5.26,5.209h-5.26ZM38.694,39.41H17.238a2.533,2.533,0,0,1-2.53-2.53V7.248a2.533,2.533,0,0,1,2.53-2.53H32.1v7.575a1.556,1.556,0,0,0,1.557,1.557h7.565V36.88A2.534,2.534,0,0,1,38.694,39.41Z" transform="translate(-12.989 -3)" fill="#006341"/>
      </g>
    </g>
    <line id="Línea_6" data-name="Línea 6" x2="17.33" transform="translate(96.476 472.003)" fill="none" stroke="#006341" stroke-linecap="round" stroke-width="2"/>
    <line id="Línea_7" data-name="Línea 7" x2="17.33" transform="translate(96.476 478.935)" fill="none" stroke="#006341" stroke-linecap="round" stroke-width="2"/>
    <line id="Línea_8" data-name="Línea 8" x2="10.398" transform="translate(96.476 485.867)" fill="none" stroke="#006341" stroke-linecap="round" stroke-width="2"/>
  </g>
</svg>
