<svg xmlns="http://www.w3.org/2000/svg" width="15.65" height="17.911" viewBox="0 0 15.65 17.911">
  <path id="Trazado_4454" data-name="Trazado 4454" d="M33.923,16.794a4.715,4.715,0,0,0-.736-.235l.009-.023-.934-.755V14.623a4.129,4.129,0,0,0,1.363-2.48h0l.005-.028.008-.044h0c.016-.1.033-.19.04-.259a1.166,1.166,0,0,0,.6-.24.957.957,0,0,0,.365-.582,1.8,1.8,0,0,0-.158-1.569.8.8,0,0,0-.545-.266,6.918,6.918,0,0,0,.594-3.549,4.289,4.289,0,0,0-3.4-3.561,3.66,3.66,0,0,0-3.4.985,3.1,3.1,0,0,0-2.181.832,3.6,3.6,0,0,0-.875,2.819,4.449,4.449,0,0,0,.915,2.49.774.774,0,0,0-.437.249,1.8,1.8,0,0,0-.161,1.57.969.969,0,0,0,.369.582,1.143,1.143,0,0,0,.6.24A4.267,4.267,0,0,0,27.372,14.6v1.158l-.934.755.009.023a4.6,4.6,0,0,0-.735.235,10.71,10.71,0,0,0-3.3,2.093l.27.253a10.348,10.348,0,0,1,3.17-2,4.153,4.153,0,0,1,.7-.223l.321-.259.86-.747V14.412c-.023-.017-.05-.029-.073-.046a3.888,3.888,0,0,1-1.347-2.688.256.256,0,0,0-.091-.177.273.273,0,0,0-.2-.06.689.689,0,0,1-.455-.169.609.609,0,0,1-.224-.362c-.167-.767-.05-1.1.077-1.246a.475.475,0,0,1,.4-.142.228.228,0,0,0,.064-.005.254.254,0,0,0,.237.016.265.265,0,0,0,.154-.27l-.4-.313a4.071,4.071,0,0,1-.842-2.286,3.256,3.256,0,0,1,.767-2.54A2.7,2.7,0,0,1,27.68,3.4l.087,0a.243.243,0,0,0,.186-.071,3.313,3.313,0,0,1,3.1-.923,3.917,3.917,0,0,1,3.113,3.248,6.438,6.438,0,0,1-.5,3.195l-.321.607a.246.246,0,0,0,.161.141.264.264,0,0,0,.062.008.249.249,0,0,0,.18-.089.3.3,0,0,0,.042.005.491.491,0,0,1,.416.142c.127.145.243.478.073,1.248a.579.579,0,0,1-.218.357.7.7,0,0,1-.462.171.255.255,0,0,0-.283.237,4.21,4.21,0,0,1-.075.465h0a3.645,3.645,0,0,1-1.281,2.251c-.022.017-.049.029-.072.046v1.466l.859.747.321.26a4.033,4.033,0,0,1,.705.222,10.333,10.333,0,0,1,3.17,2.006l.271-.254A10.721,10.721,0,0,0,33.923,16.794Z" transform="translate(-21.993 -1.654)" fill="#006341" stroke="#006341" stroke-width="0.6"/>
</svg>
