<svg xmlns="http://www.w3.org/2000/svg" width="14.265" height="17.882" viewBox="0 0 14.265 17.882">
  <g id="Grupo_3480" data-name="Grupo 3480" transform="translate(-41.322 -1.654)">
    <path id="Trazado_4455" data-name="Trazado 4455" d="M53.5,5.656A6.449,6.449,0,0,1,53,8.851l-.321.607a.246.246,0,0,0,.161.141.264.264,0,0,0,.062.008.249.249,0,0,0,.18-.089.3.3,0,0,0,.042.005.491.491,0,0,1,.416.142c.127.145.243.478.073,1.248a.579.579,0,0,1-.218.357.7.7,0,0,1-.462.171.255.255,0,0,0-.283.237,4.21,4.21,0,0,1-.075.465h.382c.025-.127.043-.243.052-.331a1.166,1.166,0,0,0,.6-.24.952.952,0,0,0,.364-.582,1.794,1.794,0,0,0-.157-1.569.8.8,0,0,0-.545-.266,6.929,6.929,0,0,0,.594-3.549,4.289,4.289,0,0,0-3.4-3.561,3.66,3.66,0,0,0-3.4.985,3.1,3.1,0,0,0-2.181.832,3.6,3.6,0,0,0-.875,2.819,4.449,4.449,0,0,0,.915,2.49.774.774,0,0,0-.437.249,1.8,1.8,0,0,0-.161,1.57.969.969,0,0,0,.369.582,1.143,1.143,0,0,0,.6.24A4.267,4.267,0,0,0,46.7,14.6v1.158l-.934.755.009.023a4.569,4.569,0,0,0-.735.235,10.71,10.71,0,0,0-3.3,2.093l.27.253a10.348,10.348,0,0,1,3.17-2,4.125,4.125,0,0,1,.7-.223l.321-.259.86-.747V14.412c-.024-.017-.05-.029-.073-.046a3.888,3.888,0,0,1-1.347-2.688.256.256,0,0,0-.091-.177.273.273,0,0,0-.2-.06.692.692,0,0,1-.456-.169.613.613,0,0,1-.223-.362c-.167-.767-.05-1.1.077-1.246a.474.474,0,0,1,.4-.142.218.218,0,0,0,.063-.005.257.257,0,0,0,.238.016.265.265,0,0,0,.154-.27l-.4-.313a4.071,4.071,0,0,1-.842-2.286,3.256,3.256,0,0,1,.767-2.54A2.7,2.7,0,0,1,47.009,3.4l.087,0a.243.243,0,0,0,.186-.071,3.313,3.313,0,0,1,3.1-.923A3.917,3.917,0,0,1,53.5,5.656Z" fill="#006341" stroke="#006341" stroke-width="0.6"/>
    <path id="Trazado_4456" data-name="Trazado 4456" d="M53.147,15.939l2.033-2.033a.25.25,0,0,0-.354-.353l-2.033,2.033L50.76,13.553a.25.25,0,0,0-.354.353l2.034,2.033-2.034,2.034a.25.25,0,0,0,.177.426.247.247,0,0,0,.177-.073l2.033-2.033,2.033,2.033a.25.25,0,1,0,.354-.353Z" fill="#006341" stroke="#006341" stroke-width="0.6"/>
  </g>
</svg>
