<svg xmlns="http://www.w3.org/2000/svg" width="58" height="60.403" viewBox="0 0 58 60.403">
  <g id="Grupo_3332" data-name="Grupo 3332" transform="translate(-1133 -225.597)">
    <path id="Trazado_4342" data-name="Trazado 4342" d="M10.848,48.523V47.11a5.632,5.632,0,0,1,1.5-3.871c2-2.125,5.4-3.787,7.25-4.587a9.461,9.461,0,0,1,1.663-.522l2.432,6.159a.6.6,0,0,0,.931.243l.478-.39,1.586,1.94-.839,2.44h.9l.721-2.1h2.367l.732,2.1h.9l-.851-2.44,1.608-1.94.478.39a.6.6,0,0,0,.378.135.6.6,0,0,0,.554-.378l2.43-6.157a9.656,9.656,0,0,1,1.637.519c1.859.8,5.273,2.469,7.253,4.588a5.632,5.632,0,0,1,1.5,3.871v1.413H47.3V47.11a6.479,6.479,0,0,0-1.728-4.45,23.805,23.805,0,0,0-7.538-4.788,10.534,10.534,0,0,0-1.658-.534l.022-.055-2.159-1.745v-2.6a9.738,9.738,0,0,0,3.247-6.392,2.687,2.687,0,0,0,1.376-.549,2.183,2.183,0,0,0,.834-1.332c.372-1.686.252-2.893-.359-3.589a1.825,1.825,0,0,0-1.246-.608,15.843,15.843,0,0,0,1.359-8.117A9.814,9.814,0,0,0,31.663,4.2a8.367,8.367,0,0,0-7.778,2.253A7.105,7.105,0,0,0,18.9,8.36c-1.452,1.451-2.126,3.62-2,6.447a10.18,10.18,0,0,0,2.094,5.7,1.783,1.783,0,0,0-1,.569c-.611.7-.734,1.9-.366,3.591a2.217,2.217,0,0,0,.843,1.333,2.636,2.636,0,0,0,1.375.548,9.754,9.754,0,0,0,3.222,6.364v2.65l-2.135,1.726.02.053a10.625,10.625,0,0,0-1.683.537c-1.912.827-5.434,2.55-7.536,4.787A6.479,6.479,0,0,0,10,47.11v1.413Zm19.084-2.947H27.369l-1.611-1.969,2.9-2.367,2.9,2.366ZM28.521,40,23.91,35.842V33.516a9.154,9.154,0,0,0,4.751,1.233,9.176,9.176,0,0,0,4.728-1.22v2.333L28.8,40Zm6.858-2.446-2.411,6.108-3.655-2.98,4.7-4.233ZM17.742,14.77c-.113-2.58.477-4.534,1.755-5.811A6.173,6.173,0,0,1,23.766,7.3c.084,0,.152,0,.2,0a.555.555,0,0,0,.426-.163,7.579,7.579,0,0,1,7.1-2.111,8.961,8.961,0,0,1,7.119,7.43,14.733,14.733,0,0,1-1.144,7.307,7.941,7.941,0,0,0-1.315-3.954,4.661,4.661,0,0,0-3.832-1.969c-6.266-.038-7.938-2.2-8.21-2.634a.578.578,0,0,0-.7-.236c-.732.278-4.238,1.989-3.739,9.019A9.322,9.322,0,0,1,17.742,14.77Zm2.92,11.466a.589.589,0,0,0-.208-.4A.62.62,0,0,0,20,25.695a1.582,1.582,0,0,1-1.042-.388,1.39,1.39,0,0,1-.511-.826c-.382-1.756-.115-2.518.175-2.85a1.082,1.082,0,0,1,.917-.325.6.6,0,0,0,.146-.012.585.585,0,0,0,.543.036.6.6,0,0,0,.352-.617c-.71-6.559,2.006-8.423,2.936-8.862.636.851,2.755,2.806,8.794,2.843a3.811,3.811,0,0,1,3.138,1.6,7.62,7.62,0,0,1,1.194,4.593.592.592,0,0,0,.454.593.627.627,0,0,0,.142.017.569.569,0,0,0,.411-.2.525.525,0,0,0,.1.01,1.123,1.123,0,0,1,.952.326c.291.331.555,1.093.167,2.853a1.333,1.333,0,0,1-.5.817,1.6,1.6,0,0,1-1.056.39.585.585,0,0,0-.648.543A9.056,9.056,0,0,1,33.556,32.4a8,8,0,0,1-4.9,1.5,7.98,7.98,0,0,1-4.917-1.518A8.885,8.885,0,0,1,20.662,26.236Zm2.651,10.209,4.7,4.233-3.656,2.98-2.411-6.108Z" transform="translate(1133 222)" fill="#006341" stroke="#006341" stroke-width="0.8"/>
    <text id="responsable" transform="translate(1162 282)" fill="#006341" font-size="10" font-family="AvenirNext-Medium, Avenir Next" font-weight="500"><tspan x="-28.21" y="0">responsable</tspan></text>
  </g>
</svg>
